<svg width="39" height="38" viewBox="0 0 39 38" fill="none" xmlns="http://www.w3.org/2000/svg">
<ellipse cx="19" cy="37" rx="13" ry="1" fill="#ECECEC"/>
<circle cx="12" cy="12" r="12" fill="url(#paint0_linear_1_20)"/>
<path fill-rule="evenodd" clip-rule="evenodd" d="M33.9531 15.0753C33.4901 10.5391 29.6584 7 25 7C20.5237 7 16.8107 10.2679 16.1165 14.5481C15.316 14.1957 14.4308 14 13.5 14C9.91015 14 7 16.9101 7 20.5C7 20.5854 7.00165 20.6704 7.00491 20.755C7.00165 20.8363 7 20.9179 7 21C7 24.3137 9.68629 27 13 27H13.5H33C36.3137 27 39 24.3137 39 21C39 18.0106 36.8138 15.5319 33.9531 15.0753Z" fill="url(#paint1_linear_1_20)" fill-opacity="0.8"/>
<defs>
<linearGradient id="paint0_linear_1_20" x1="12" y1="0" x2="12" y2="24" gradientUnits="userSpaceOnUse">
<stop stop-color="#FFD800"/>
<stop offset="1" stop-color="#FF6B00" stop-opacity="0.64"/>
</linearGradient>
<linearGradient id="paint1_linear_1_20" x1="23" y1="15" x2="23" y2="27" gradientUnits="userSpaceOnUse">
<stop stop-color="#0094FF"/>
<stop offset="1" stop-color="white"/>
</linearGradient>
</defs>
</svg>
